<?xml version="1.0" standalone="no"?>
<!DOCTYPE svg PUBLIC "-//W3C//DTD SVG 20010904//EN"
 "http://www.w3.org/TR/2001/REC-SVG-20010904/DTD/svg10.dtd">
<svg version="1.0" xmlns="http://www.w3.org/2000/svg"
 width="584.000000pt" height="584.000000pt" viewBox="0 0 584.000000 584.000000"
 preserveAspectRatio="xMidYMid meet">
<metadata>
Created by potrace 1.14, written by Peter Selinger 2001-2017
</metadata>
<g transform="translate(0.000000,584.000000) scale(0.100000,-0.100000)"
fill="#000000" stroke="none">
<path d="M20 2915 l0 -2885 2890 0 2890 0 0 2885 0 2885 -2890 0 -2890 0 0
-2885z m2870 -5 l0 -2860 -1425 0 -1425 0 0 2860 0 2860 1425 0 1425 0 0
-2860z m2880 0 l0 -2860 -1425 0 -1425 0 0 2860 0 2860 1425 0 1425 0 0 -2860z"/>
<path d="M1945 4586 c-10 -14 -26 -26 -37 -26 -33 0 -56 -18 -63 -50 -9 -42
-25 -34 -55 28 l-25 52 -97 0 c-109 0 -120 -9 -71 -54 27 -25 27 -25 10 -61
-23 -49 -46 -43 -77 22 -19 40 -30 53 -47 53 -12 0 -23 4 -25 9 -1 4 -31 11
-65 15 l-63 7 0 -57 0 -57 -24 22 c-24 22 -24 23 -31 2 -3 -11 -29 -37 -57
-57 -51 -38 -51 -38 -81 -20 -35 20 -42 14 -51 -45 -6 -37 -8 -39 -43 -39 -20
0 -45 7 -55 17 -17 15 -18 14 -18 -34 0 -63 -20 -76 -50 -33 -23 33 -47 39
-56 15 -4 -9 8 -31 30 -56 53 -58 60 -82 45 -153 -11 -54 -11 -60 6 -72 24
-18 44 -11 132 45 40 25 100 63 133 84 42 27 68 37 83 33 34 -8 192 49 249 90
37 26 57 34 74 30 14 -4 34 -2 45 5 40 21 116 -7 176 -65 31 -31 53 -61 53
-73 0 -30 57 -65 83 -51 15 7 24 5 41 -11 29 -27 36 -26 36 4 0 30 39 44 79
28 43 -16 51 -7 51 60 0 46 -5 68 -20 87 -37 47 -21 68 34 45 l36 -15 0 37 c0
66 -8 78 -73 109 l-62 30 -3 52 c-2 29 -6 52 -9 52 -4 0 -21 -5 -40 -12 -29
-11 -35 -10 -57 11 l-24 23 -17 -26z m25 -76 c0 -5 -2 -10 -4 -10 -3 0 -8 5
-11 10 -3 6 -1 10 4 10 6 0 11 -4 11 -10z m-528 -47 c21 -19 24 -43 5 -43 -19
0 -37 21 -37 42 0 22 8 23 32 1z m136 -84 c-2 -6 -8 -10 -13 -10 -5 0 -11 4
-13 10 -2 6 4 11 13 11 9 0 15 -5 13 -11z m537 -127 c0 -18 -20 -15 -23 4 -3
10 1 15 10 12 7 -3 13 -10 13 -16z"/>
<path d="M730 4315 c0 -46 -35 -82 -87 -91 -32 -5 -42 -12 -50 -35 -9 -22 -18
-29 -37 -29 -14 0 -26 -5 -26 -10 0 -6 -15 -20 -33 -30 -19 -11 -40 -32 -48
-46 -11 -22 -19 -25 -45 -21 -25 4 -37 0 -56 -21 -27 -29 -88 -119 -88 -129 0
-4 -18 -43 -40 -87 -28 -57 -45 -108 -56 -171 -8 -49 -23 -117 -34 -150 -55
-171 -63 -260 -30 -302 17 -22 20 -41 20 -144 0 -97 3 -119 15 -119 16 0 30
-44 47 -148 l12 -73 30 3 c26 3 32 9 42 43 l12 40 10 -26 c6 -15 16 -45 22
-68 6 -22 16 -41 23 -41 8 0 11 -16 9 -53 -5 -82 12 -133 49 -146 16 -6 44
-20 61 -33 l31 -22 16 24 c45 67 44 67 84 19 25 -31 38 -60 44 -94 8 -48 10
-51 62 -78 58 -29 119 -35 140 -14 10 10 18 5 42 -22 26 -32 30 -34 56 -22 23
11 29 10 40 -5 7 -10 13 -21 13 -26 0 -9 74 -48 91 -48 7 0 20 7 29 15 14 13
19 13 35 1 17 -12 24 -10 66 20 l48 33 21 -28 c11 -16 23 -43 26 -61 5 -23 11
-30 25 -28 13 2 24 -8 36 -32 11 -21 33 -42 56 -53 37 -18 38 -18 85 3 95 43
107 51 131 86 14 20 35 40 48 45 21 8 23 15 23 72 0 63 0 63 35 76 39 14 55 9
55 -18 0 -11 9 -29 20 -42 l20 -24 -5 25 c-3 14 0 33 8 44 13 18 15 18 63 -7
27 -14 56 -28 65 -31 11 -3 19 -21 23 -50 l7 -46 92 46 c86 44 95 46 152 41
33 -3 68 -8 78 -12 13 -6 34 10 87 65 71 74 99 131 115 235 11 69 15 75 42 75
l26 0 -8 72 c-3 40 -9 76 -11 80 -13 21 -144 -11 -179 -42 -20 -18 -38 -21
-200 -39 -44 -5 -105 -16 -135 -25 -30 -9 -85 -16 -123 -16 -80 0 -110 -20
-101 -68 5 -25 2 -30 -18 -35 -42 -12 -67 -7 -79 14 -9 18 -16 20 -52 14 -23
-4 -64 -7 -91 -7 -41 -1 -53 4 -72 25 -21 24 -30 27 -111 29 -79 3 -91 1 -117
-19 -37 -30 -57 -29 -85 3 -21 25 -27 26 -79 19 -105 -12 -142 -7 -220 33 -68
34 -74 36 -86 20 -19 -26 -26 -22 -26 15 0 36 -25 67 -53 67 -9 0 -17 -7 -17
-15 0 -26 -21 -16 -35 18 -18 40 -42 68 -77 90 -14 9 -29 26 -33 37 -6 18 -12
20 -37 14 -30 -6 -31 -6 -24 27 4 23 2 37 -10 50 -12 13 -13 22 -5 38 16 29
13 41 -9 41 -30 0 -24 26 10 40 24 10 28 15 20 31 -9 17 -13 17 -46 3 -20 -8
-38 -14 -39 -12 -2 2 3 37 12 78 8 41 19 109 23 150 5 41 12 101 16 132 5 40
3 62 -5 72 -10 11 -10 24 0 55 13 43 21 47 64 31 34 -13 42 7 21 49 -28 54
-13 68 34 31 38 -30 50 -25 50 20 0 36 2 40 25 40 28 0 57 39 77 104 6 21 22
45 34 53 21 13 22 16 9 48 -12 28 -12 35 -1 44 16 14 25 4 41 -44 18 -54 40
-38 43 31 3 59 2 62 -23 68 -25 6 -59 61 -49 78 3 5 3 8 0 8 -2 0 -14 -16 -26
-35 -12 -19 -25 -35 -30 -35 -13 0 -22 55 -14 95 5 28 11 36 24 32 26 -7 50
11 50 38 0 14 -4 25 -10 25 -5 0 -10 10 -10 23 0 21 -36 67 -53 67 -4 0 -7
-16 -7 -35z m-340 -1007 c0 -11 -7 -18 -20 -18 -24 0 -29 27 -14 70 4 11 9 9
19 -10 8 -14 14 -33 15 -42z m2050 -880 c0 -7 -5 -20 -10 -28 -7 -12 -12 -12
-21 -3 -9 9 -9 16 1 28 15 18 30 20 30 3z m-360 -14 c0 -9 -5 -14 -12 -12 -18
6 -21 28 -4 28 9 0 16 -7 16 -16z m-510 -57 c0 -19 -37 -50 -49 -42 -17 10
-13 33 7 44 24 15 42 13 42 -2z m120 -67 c0 -5 -7 -10 -15 -10 -8 0 -15 5 -15
10 0 6 7 10 15 10 8 0 15 -4 15 -10z m358 -42 c-2 -35 -7 -44 -25 -46 -19 -3
-20 0 -13 31 15 70 43 80 38 15z m292 7 c0 -8 -7 -15 -15 -15 -8 0 -15 7 -15
15 0 8 7 15 15 15 8 0 15 -7 15 -15z m-949 -65 c10 -6 19 -17 19 -25 0 -24
-21 -28 -42 -7 -11 11 -17 25 -14 31 9 14 12 14 37 1z m148 -62 c-4 -24 -8
-46 -9 -50 0 -5 -5 -8 -11 -8 -14 0 -5 66 12 86 17 20 17 18 8 -28z"/>
<path d="M342 1058 c-67 -36 -72 -41 -66 -66 11 -44 13 -44 70 -13 l54 29 0
-284 0 -284 45 0 45 0 0 330 0 330 -37 -1 c-23 -1 -67 -17 -111 -41z"/>
<path d="M4948 4601 c-8 -11 -32 -26 -53 -33 -31 -10 -41 -20 -49 -46 -5 -18
-14 -31 -20 -29 -6 2 -22 27 -36 55 l-25 52 -97 0 c-109 0 -120 -8 -71 -54 27
-25 27 -26 10 -61 -26 -55 -56 -43 -82 32 -9 27 -20 39 -37 42 -12 1 -25 6
-28 11 -3 4 -33 10 -67 14 l-63 7 0 -57 0 -57 -24 22 c-23 22 -24 22 -30 4 -3
-10 -29 -36 -57 -58 l-51 -39 -31 17 c-35 21 -42 15 -51 -44 -6 -37 -8 -39
-43 -39 -20 0 -45 7 -55 17 -17 15 -18 14 -18 -34 0 -34 -5 -53 -14 -56 -15
-6 -36 11 -36 29 0 15 -35 28 -50 19 -18 -11 -11 -30 25 -65 47 -45 60 -88 46
-147 -26 -102 17 -110 150 -25 50 31 109 69 132 84 28 18 56 28 82 28 59 1
179 44 237 85 37 27 57 35 74 31 14 -4 34 -2 45 5 15 8 34 7 72 -2 61 -14 157
-97 157 -134 0 -32 56 -68 83 -53 15 7 24 5 41 -11 29 -27 34 -26 38 7 2 22 8
28 35 30 18 2 40 -1 50 -6 33 -17 43 -3 43 61 0 46 -5 68 -20 87 -37 47 -21
69 35 46 l35 -15 0 37 c0 62 -9 79 -53 98 -23 10 -48 24 -55 31 -7 7 -18 13
-23 13 -5 0 -9 23 -9 50 0 55 0 55 -47 38 -22 -8 -37 -9 -41 -3 -4 6 -14 16
-24 23 -14 11 -18 10 -30 -7z m-507 -121 c21 -12 26 -50 6 -50 -19 0 -37 21
-37 42 0 21 4 22 31 8z m139 -90 c0 -5 -7 -10 -15 -10 -8 0 -15 5 -15 10 0 6
7 10 15 10 8 0 15 -4 15 -10z m538 -128 c2 -7 -3 -12 -12 -12 -9 0 -16 7 -16
16 0 17 22 14 28 -4z"/>
<path d="M3730 4325 c0 -46 -33 -80 -86 -89 -32 -6 -42 -13 -51 -37 -9 -22
-18 -29 -37 -29 -14 0 -26 -5 -26 -10 0 -6 -15 -20 -33 -30 -19 -11 -39 -32
-46 -46 -10 -23 -16 -26 -45 -21 -28 4 -38 1 -58 -21 -30 -33 -88 -120 -88
-132 0 -4 -18 -44 -40 -87 -30 -57 -45 -102 -56 -168 -8 -49 -23 -115 -33
-145 -26 -78 -51 -198 -51 -246 0 -28 6 -47 20 -59 18 -16 20 -31 20 -140 0
-112 2 -123 19 -128 15 -4 22 -24 37 -108 l19 -104 30 0 c26 0 31 5 41 40 10
36 12 38 21 20 5 -11 16 -41 23 -67 7 -27 18 -48 24 -48 7 0 10 -18 7 -51 -5
-76 15 -138 48 -145 14 -4 40 -17 58 -30 17 -13 34 -24 36 -24 2 0 17 18 31
41 27 40 28 40 48 22 38 -34 60 -74 66 -120 6 -42 12 -50 47 -70 52 -29 122
-40 149 -23 18 11 23 9 46 -19 26 -31 53 -40 65 -21 11 17 25 11 37 -16 11
-24 73 -64 99 -64 7 0 21 8 31 17 17 15 20 15 35 1 14 -15 20 -13 64 18 l48
33 20 -25 c11 -14 23 -42 27 -60 5 -27 11 -34 25 -32 13 2 24 -8 36 -32 11
-22 33 -42 57 -54 35 -17 41 -17 65 -4 14 9 43 21 64 28 23 7 53 30 80 61 23
27 50 52 60 55 14 4 17 17 17 68 0 62 0 62 35 75 42 15 51 10 60 -28 3 -16 13
-35 21 -42 12 -10 14 -6 14 25 0 45 20 55 58 30 15 -11 41 -24 57 -30 25 -9
31 -18 39 -57 l9 -46 88 45 c94 47 146 55 218 34 33 -9 36 -8 98 57 35 36 70
78 77 92 12 23 36 114 51 194 4 22 11 27 33 27 l28 0 -10 78 c-10 68 -14 77
-34 80 -32 5 -133 -26 -157 -48 -20 -18 -38 -21 -200 -39 -44 -5 -105 -16
-135 -25 -30 -9 -82 -15 -115 -14 -60 2 -104 -12 -106 -35 -1 -7 0 -24 1 -38
1 -20 -5 -28 -22 -33 -41 -11 -63 -6 -76 15 -12 19 -19 21 -60 14 -88 -14
-135 -8 -159 19 -19 23 -30 26 -110 28 -79 3 -91 1 -117 -19 -37 -30 -60 -29
-80 2 -16 24 -19 25 -129 22 -110 -2 -113 -2 -180 33 -64 33 -69 34 -81 18
-19 -26 -26 -22 -26 15 0 23 -8 41 -24 56 -25 24 -46 21 -46 -5 0 -28 -19 -13
-40 32 -13 27 -38 56 -60 70 -21 14 -40 35 -43 46 -5 16 -11 19 -32 14 -30 -8
-42 12 -26 42 9 16 7 23 -11 34 -17 12 -19 17 -9 35 16 31 14 43 -9 43 -30 0
-24 26 10 40 24 10 28 15 20 31 -9 16 -13 17 -45 3 l-35 -14 0 32 c0 18 5 51
11 73 9 36 17 100 36 262 3 34 1 58 -6 67 -9 11 -9 24 1 55 14 43 21 47 63 31
34 -13 42 7 21 49 -28 54 -13 68 34 31 38 -30 50 -25 50 19 0 36 3 40 28 43
21 2 33 14 54 53 15 28 28 58 28 67 0 10 11 25 25 34 20 13 23 20 15 34 -6 10
-10 30 -10 44 0 46 29 28 47 -29 17 -53 38 -37 41 33 2 47 0 62 -11 62 -25 0
-49 26 -56 60 l-7 34 -23 -37 c-12 -20 -26 -37 -31 -37 -12 0 -20 54 -13 93 5
31 9 36 37 39 24 2 32 8 34 27 2 13 -1 28 -7 34 -6 6 -11 19 -11 29 0 17 -36
58 -52 58 -4 0 -8 -16 -8 -35z m-340 -1007 c0 -21 -23 -24 -39 -4 -8 10 -9 21
0 42 l11 29 13 -25 c8 -14 14 -33 15 -42z m2050 -880 c0 -7 -5 -20 -10 -28 -7
-12 -12 -12 -21 -3 -9 9 -9 16 1 28 15 18 30 20 30 3z m-360 -14 c0 -17 -22
-14 -28 4 -2 7 3 12 12 12 9 0 16 -7 16 -16z m-510 -57 c0 -8 -9 -22 -21 -33
-17 -16 -22 -16 -29 -4 -14 21 -12 28 8 39 24 15 42 13 42 -2z m118 -68 c-2
-6 -8 -10 -13 -10 -5 0 -11 4 -13 10 -2 6 4 11 13 11 9 0 15 -5 13 -11z m362
-33 c0 -20 -8 -42 -17 -52 -17 -17 -18 -16 -21 14 -3 33 12 72 28 72 6 0 10
-15 10 -34z m290 -1 c0 -8 -7 -15 -15 -15 -8 0 -15 7 -15 15 0 8 7 15 15 15 8
0 15 -7 15 -15z m-949 -65 c21 -12 25 -35 7 -46 -13 -8 -51 33 -42 47 7 11 11
11 35 -1z m145 -96 c-4 -13 -11 -24 -16 -24 -14 0 -13 33 2 67 11 28 12 28 16
4 2 -12 1 -34 -2 -47z"/>
</g>
</svg>
